# xmcd
#
# Track frame offsets: 
#        150
#        16645
#        37995
#        60880
#        84317
#        99640
#        117857
#        134865
#        151277
#        163902
#        180525
#        198407
#
# Disc length: 2829 seconds
#
# Revision: 1
# Processed by: cddbd v1.5.2PL0 Copyright (c) Steve Scherf et al.
# Submitted via: ExactAudioCopy v0.99pb4
#
DISCID=910b0b0c
DTITLE=Mighty Joe Young - Mighty Joe Young
DYEAR=2002
DGENRE=Blues
TTITLE0=Green Light
TTITLE1=As The Years Go Passing By
TTITLE2=Need A Friend
TTITLE3=Big Talk
TTITLE4=I Give
TTITLE5=Chicken Heads
TTITLE6=Takes Money
TTITLE7=SomeThing On Your Mind
TTITLE8=Take My Advice
TTITLE9=New Orleans Women
TTITLE10=Serve My Time
TTITLE11=Take Over Chicago
EXTD=ID3G: 0
EXTT0=
EXTT1=
EXTT2=
EXTT3=
EXTT4=
EXTT5=
EXTT6=
EXTT7=
EXTT8=
EXTT9=
EXTT10=
EXTT11=
PLAYORDER=
